<svg
  class="text-primary"
  width="50"
  height="50"
  viewBox="0 0 509 625"
  fill="currentColor"
  xmlns="http://www.w3.org/2000/svg"
>
  <path
    d="M241 2.00003C238.067 2.53337 237.133 3.20003 238.333 3.60003C239.4 4.00003 246.6 6.6667 254.333 9.33337C272.867 16 306.867 32.5334 328.6 45.7334C410.6 95.4667 463.267 170.4 476.333 256.133C479 273.467 479 314.4 476.333 331.6C473.667 349.467 468.333 370.133 463.533 380.4C461.4 385.2 459.667 389.733 459.667 390.667C459.667 394 442.2 426.4 435.4 435.6C431.4 440.933 426.733 447.467 425 450C420.6 456.4 402.333 475.867 392.467 484.4C369.4 504.8 334.2 523.333 295.667 535.6C246.467 551.467 231.267 557.733 214.333 569.733C197.8 581.467 181.267 599.467 171.267 616.8C165.933 625.733 166.867 626.4 174.733 619.067C196.067 599.2 228.2 584.533 284.067 569.333C351.4 550.933 391.133 529.333 428.467 491.2C457.8 461.067 478.467 428.267 491.8 391.067C503.8 357.467 508.333 331.067 508.2 293.333C508.2 246.133 499.267 207.067 478.867 165.333C453.533 113.467 408.6 63.3334 359.267 32.1334C335.4 17.0667 306.333 5.60003 282.733 2.13337C272.333 0.533366 248.467 0.400033 241 2.00003Z"
  ></path>
  <path
    d="M180.333 31.4667C137.933 35.8667 99.6666 52 68.3333 78.6667C54.4666 90.4 48.3333 96.9334 40.7333 108C25.9333 129.867 22.4666 137.333 14.8666 165.333C10.8666 180.533 10.7333 184.533 14.4666 177.333C21.5333 164.133 41.2666 140.133 62.2 119.333C93.1333 88.5334 124.733 70.9334 167 61.2001C181.933 57.6001 225.667 57.6001 238.067 61.0667C259.933 67.0667 277.667 76.9334 290.467 90.1334C299.133 99.2 305 109.467 309 123.333C310.6 128.8 313 135.467 314.333 138C320.467 150 334.867 163.6 351.933 173.467C357.533 176.8 362.867 180.267 363.667 181.333C366.2 184.4 364.2 188.667 356.333 197.333C344.333 210.533 342.333 220 351.133 223.467C356.2 225.333 354.6 228.667 346.467 233.6C339.4 237.867 339.4 237.867 343.133 238.667C356.867 241.733 357.933 243.6 350.733 252L345.267 258.4L347.8 267.2C350.733 277.067 350.2 281.733 345.933 285.733C340.333 291.067 335.8 291.733 303.667 292.667C275.533 293.467 271.533 293.867 264.467 296.667C250.733 301.867 240.867 314.667 236.2 332.8C235 337.2 234.333 341.067 234.6 341.067C234.867 341.2 239.8 341.2 245.667 340.933L256.467 340.533L259.667 334.533C263.533 327.067 271.267 320.267 278.2 318.267C281.133 317.333 292.733 316.667 306.467 316.667C333.8 316.667 344.067 315.2 355.267 310C370.6 302.933 376.6 289.067 372.333 270.533L369.933 260.8L374.2 256C379.133 250.4 379.667 244.4 375.667 239.333C372.333 235.067 372.333 233.6 375.933 227.467L378.867 222.267L374.6 217.467C372.2 214.8 370.333 211.6 370.333 210.4C370.333 209.2 373.267 205.467 376.867 202.133C385.267 194.267 389 188 389 181.6C389 171.867 385.133 167.467 361.4 150.133C341.133 135.333 338.467 131.867 333 114.4C327.933 97.6 325.267 92 317.933 82C310.733 72.1334 301.267 63.4667 287.533 54.1334C259 34.8 222.467 27.0667 180.333 31.4667Z"
  ></path>
  <path
    d="M183 109.6C175.8 118.8 168.6 132.933 165.8 144C162.733 155.2 163 179.6 166.2 194.133C167.667 200.4 171.933 213.867 175.667 224.133C179.533 234.267 184.333 248 186.6 254.667C193.933 276.933 192.867 297.867 183.533 315.467C178.867 324.267 166.067 337.067 156.6 342.667C149.667 346.667 134.733 352.933 128.733 354.533L125 355.333V340.933C125 314.667 133 293.867 149.133 277.733C154.067 272.8 161.267 267.067 165 264.933C173.133 260.267 172.333 259.2 159.8 258.4C151.533 257.867 150.2 258.267 137.667 264.133C114.067 275.067 109.133 276.8 98.9999 277.6C79.9333 279.067 62.4666 271.733 46.0666 255.333C40.3333 249.6 35.6666 244.4 35.6666 243.6C35.6666 241.6 54.7333 235.867 70.3333 233.2C87.1333 230.267 106.467 231.333 132.333 236.4C157.933 241.6 163.667 242.4 163.667 240.8C163.667 239.067 143.8 221.6 136.733 217.2C108.2 199.067 58.9999 203.467 5.93327 228.667C-1.53339 232.267 -1.66673 231.6 8.06661 247.067C16.3333 260.4 34.4666 280.267 44.8666 287.2C59.9333 297.467 70.8666 300.533 92.1999 300.667C106.6 300.667 106.6 300.667 105.8 303.6C102.2 316 100.6 327.067 100.6 340C100.6 352.8 103.133 373.333 106.067 383.6L107 386.933L130.333 379.333C165 368 177.267 360.933 193.933 342.8C213.133 321.867 219.933 294 213.133 265.2C209.8 251.733 207.8 246.533 194.333 218.267C178.867 185.6 176.867 179.067 176.067 160.933C175 138.933 178.867 122.8 188.333 108.667C194.6 99.3334 190.733 100 183 109.6Z"
  ></path>
  <path
    d="M405.8 285.733C403 307.067 389.667 331.867 368.867 354.534C346.867 378.534 330.6 389.734 283 414C265.4 422.934 245.933 433.6 239.667 437.6C199.4 463.867 173.933 496.8 164.2 534.934C161.667 545.2 161 550.8 161.133 563.867C161.267 572.667 161.667 581.734 162.2 584C163 587.6 163.267 587.067 165.4 578.534C170.467 557.867 180.067 537.6 193.933 518.4C216.6 486.667 236.2 471.334 287.4 444.8C332.867 421.2 347.8 411.2 367.667 390.534C387.267 370.134 398.867 351.334 405 330C408.333 318.667 410.333 285.467 408.067 281.333C407 279.467 406.6 280.4 405.8 285.733Z"
  ></path>
  <path
    d="M335.4 354.667C329.667 357.867 309.4 362.8 276.333 369.334C231.267 378.134 213.267 383.334 191 394.4C171.8 403.867 155.667 416 139.533 433.067C100.2 474.534 99.1334 550.134 137.133 595.067C147.133 606.934 150.867 608 145.4 597.6C142.333 591.6 135.933 568.534 134.2 557.334C133.267 552 133 539.467 133.4 528C133.933 511.467 134.6 506 137.533 496.267C144.2 474.134 154.2 458 171.267 442C193.267 421.334 216.467 410 257.8 399.334C300.333 388.4 312.333 383.067 327 368.534C333.667 362 341.133 352.534 339.4 352.667C339.133 352.8 337.4 353.6 335.4 354.667Z"
  ></path>
</svg>