<?xml version="1.0" standalone="no"?>
<!DOCTYPE svg PUBLIC "-//W3C//DTD SVG 20010904//EN"
 "http://www.w3.org/TR/2001/REC-SVG-20010904/DTD/svg10.dtd">
<svg version="1.0" xmlns="http://www.w3.org/2000/svg"
 width="1024.000000pt" height="1024.000000pt" viewBox="0 0 1024.000000 1024.000000"
 preserveAspectRatio="xMidYMid meet">
<metadata>
Created by potrace 1.16, written by Peter Selinger 2001-2019
</metadata>
<g transform="translate(0.000000,1024.000000) scale(0.100000,-0.100000)"
fill="#14b8a6" stroke="none">
<path d="M5550 7870 c-22 -4 -29 -9 -20 -12 8 -3 62 -23 120 -43 139 -50 394
-174 557 -273 615 -373 1010 -935 1108 -1578 20 -130 20 -437 0 -566 -20 -134
-60 -289 -96 -366 -16 -36 -29 -70 -29 -77 0 -25 -131 -268 -182 -337 -30 -40
-65 -89 -78 -108 -33 -48 -170 -194 -244 -258 -173 -153 -437 -292 -726 -384
-369 -119 -483 -166 -610 -256 -124 -88 -248 -223 -323 -353 -40 -67 -33 -72
26 -17 160 149 401 259 820 373 505 138 803 300 1083 586 220 226 375 472 475
751 90 252 124 450 123 733 0 354 -67 647 -220 960 -190 389 -527 765 -897
999 -179 113 -397 199 -574 225 -78 12 -257 13 -313 1z"/>
<path d="M5095 7649 c-318 -33 -605 -154 -840 -354 -104 -88 -150 -137 -207
-220 -111 -164 -137 -220 -194 -430 -30 -114 -31 -144 -3 -90 53 99 201 279
358 435 232 231 469 363 786 436 112 27 440 27 533 1 164 -45 297 -119 393
-218 65 -68 109 -145 139 -249 12 -41 30 -91 40 -110 46 -90 154 -192 282
-266 42 -25 82 -51 88 -59 19 -23 4 -55 -55 -120 -90 -99 -105 -170 -39 -196
38 -14 26 -39 -35 -76 -53 -32 -53 -32 -25 -38 103 -23 111 -37 57 -100 l-41
-48 19 -66 c22 -74 18 -109 -14 -139 -42 -40 -76 -45 -317 -52 -211 -6 -241
-9 -294 -30 -103 -39 -177 -135 -212 -271 -9 -33 -14 -62 -12 -62 2 -1 39 -1
83 1 l81 3 24 45 c29 56 87 107 139 122 22 7 109 12 212 12 205 0 282 11 366
50 115 53 160 157 128 296 l-18 73 32 36 c37 42 41 87 11 125 -25 32 -25 43 2
89 l22 39 -32 36 c-18 20 -32 44 -32 53 0 9 22 37 49 62 63 59 91 106 91 154
0 73 -29 106 -207 236 -152 111 -172 137 -213 268 -38 126 -58 168 -113 243
-54 74 -125 139 -228 209 -214 145 -488 203 -804 170z"/>
<path d="M5115 7063 c-54 -69 -108 -175 -129 -258 -23 -84 -21 -267 3 -376 11
-47 43 -148 71 -225 29 -76 65 -179 82 -229 55 -167 47 -324 -23 -456 -35 -66
-131 -162 -202 -204 -52 -30 -164 -77 -209 -89 l-28 -6 0 108 c0 197 60 353
181 474 37 37 91 80 119 96 61 35 55 43 -39 49 -62 4 -72 1 -166 -43 -177 -82
-214 -95 -290 -101 -143 -11 -274 44 -397 167 -43 43 -78 82 -78 88 0 15 143
58 260 78 126 22 271 14 465 -24 192 -39 235 -45 235 -33 0 13 -149 144 -202
177 -214 136 -583 103 -981 -86 -56 -27 -57 -22 16 -138 62 -100 198 -249 276
-301 113 -77 195 -100 355 -101 108 0 108 0 102 -22 -27 -93 -39 -176 -39
-273 0 -96 19 -250 41 -327 l7 -25 175 57 c260 85 352 138 477 274 144 157
195 366 144 582 -25 101 -40 140 -141 352 -116 245 -131 294 -137 430 -8 165
21 286 92 392 47 70 18 65 -40 -7z"/>
<path d="M6786 5742 c-21 -160 -121 -346 -277 -516 -165 -180 -287 -264 -644
-446 -132 -67 -278 -147 -325 -177 -302 -197 -493 -444 -566 -730 -19 -77 -24
-119 -23 -217 1 -66 4 -134 8 -151 6 -27 8 -23 24 41 38 155 110 307 214 451
170 238 317 353 701 552 341 177 453 252 602 407 147 153 234 294 280 454 25
85 40 334 23 365 -8 14 -11 7 -17 -33z"/>
<path d="M6258 5225 c-43 -24 -195 -61 -443 -110 -338 -66 -473 -105 -640
-188 -144 -71 -265 -162 -386 -290 -295 -311 -303 -878 -18 -1215 75 -89 103
-97 62 -19 -23 45 -71 218 -84 302 -7 40 -9 134 -6 220 4 124 9 165 31 238 50
166 125 287 253 407 165 155 339 240 649 320 319 82 409 122 519 231 50 49
106 120 93 119 -2 -1 -15 -7 -30 -15z"/>
</g>
</svg>
