<?xml version="1.0" standalone="no"?>
<!DOCTYPE svg PUBLIC "-//W3C//DTD SVG 20010904//EN"
 "http://www.w3.org/TR/2001/REC-SVG-20010904/DTD/svg10.dtd">
<svg version="1.0" xmlns="http://www.w3.org/2000/svg"
 width="1024.000000pt" height="1024.000000pt" viewBox="0 0 1024.000000 1024.000000"
 preserveAspectRatio="xMidYMid meet">
<metadata>
Created by potrace 1.16, written by Peter Selinger 2001-2019
</metadata>
<g transform="translate(0.000000,1024.000000) scale(0.100000,-0.100000)"
fill="#10b981" stroke="none">
<path d="M0 5120 l0 -5120 5120 0 5120 0 0 5120 0 5120 -5120 0 -5120 0 0
-5120z m5873 2745 c448 -67 965 -445 1303 -951 383 -573 483 -1268 273 -1905
-78 -239 -218 -490 -381 -685 -283 -336 -621 -545 -1101 -680 -522 -146 -716
-230 -899 -388 l-80 -68 28 48 c92 163 215 296 358 389 144 94 209 120 586
240 243 77 436 172 627 307 97 68 297 264 350 343 18 28 54 77 78 110 25 33
61 93 80 132 19 40 42 85 52 100 10 15 30 58 44 97 15 39 39 102 53 139 37 96
74 288 87 450 21 252 -12 501 -101 769 -170 510 -523 932 -1045 1245 -175 105
-431 226 -600 284 l-70 24 45 6 c84 11 215 9 313 -6z m-389 -226 c104 -14 276
-75 374 -133 59 -35 117 -81 182 -146 110 -109 150 -177 199 -337 39 -125 72
-165 240 -286 135 -97 171 -138 178 -200 7 -56 -9 -86 -81 -157 -31 -30 -56
-62 -56 -72 0 -9 14 -33 30 -52 l31 -34 -23 -46 -22 -46 22 -39 c31 -54 28
-84 -12 -128 l-33 -38 14 -45 c30 -96 14 -204 -39 -261 -76 -82 -186 -108
-456 -109 -205 0 -231 -6 -293 -66 -20 -20 -45 -54 -54 -75 l-18 -39 -68 0
c-37 0 -74 -3 -83 -6 -12 -5 -14 1 -9 33 15 99 75 206 146 259 77 58 119 66
352 69 227 3 295 15 335 58 32 34 35 65 13 138 l-20 68 39 43 c53 59 50 74
-17 93 -30 9 -55 18 -55 20 0 2 20 15 45 29 24 15 49 35 55 45 8 16 5 21 -19
29 -70 25 -59 85 34 194 36 42 65 85 65 97 0 22 -32 48 -124 102 -75 43 -195
155 -235 218 -17 27 -45 93 -62 147 -35 111 -53 146 -116 221 -222 264 -677
341 -1127 191 -207 -69 -410 -194 -579 -357 -126 -121 -287 -310 -360 -420
-48 -74 -49 -75 -42 -36 17 96 96 325 133 386 95 156 159 232 284 340 179 154
389 260 643 323 54 13 156 28 270 40 54 5 234 -3 319 -15z m-314 -545 c-88
-127 -130 -301 -110 -457 13 -101 44 -192 125 -362 139 -291 174 -398 175
-537 1 -276 -185 -528 -471 -638 -81 -31 -323 -110 -338 -110 -17 0 -43 171
-48 310 -4 124 -2 158 16 233 12 49 21 92 21 95 0 4 -60 7 -133 8 -111 1 -141
4 -189 23 -159 62 -326 218 -439 414 -33 55 -38 71 -28 78 8 5 68 32 134 60
342 145 633 167 840 65 39 -20 109 -69 159 -113 l90 -78 -43 -3 c-24 -2 -111
12 -195 30 -137 30 -166 33 -311 32 -164 0 -182 -3 -357 -56 l-68 -20 19 -26
c103 -144 278 -242 430 -242 87 0 153 19 270 76 159 77 194 85 276 63 l40 -11
-49 -25 c-74 -38 -197 -165 -234 -243 -50 -106 -74 -211 -76 -327 0 -55 2
-105 6 -109 4 -4 42 5 85 20 312 110 462 357 399 656 -8 36 -43 142 -79 235
-100 261 -111 311 -112 495 0 176 13 229 85 350 31 53 123 160 137 160 2 0
-10 -21 -27 -46z m1637 -1489 c-3 -60 -13 -139 -22 -175 -26 -102 -116 -274
-193 -370 -157 -195 -318 -314 -667 -495 -397 -205 -545 -318 -710 -541 -111
-149 -195 -321 -233 -476 l-17 -72 -7 40 c-12 67 -8 246 6 314 42 194 133 365
281 528 133 145 296 256 623 421 346 175 509 290 659 462 138 158 226 322 255
474 12 64 13 65 21 33 5 -18 7 -82 4 -143z m-527 -385 c0 -6 -35 -46 -77 -89
-118 -117 -191 -152 -489 -230 -362 -94 -515 -168 -686 -329 -182 -172 -267
-354 -293 -622 -13 -137 30 -387 91 -532 14 -33 23 -62 20 -65 -7 -8 -92 85
-132 144 -116 173 -176 441 -145 651 34 232 117 395 282 549 123 116 234 189
389 258 149 67 330 114 729 190 73 14 170 38 215 54 98 34 96 34 96 21z
m-3946 -2512 c38 -95 81 -203 97 -240 16 -36 29 -69 29 -72 0 -3 -23 -6 -50
-6 -40 0 -52 4 -56 18 -3 9 -12 32 -20 50 l-14 32 -89 0 -89 0 -23 -47 c-23
-46 -26 -48 -71 -51 -27 -2 -48 -1 -48 3 0 14 94 264 110 291 9 17 23 48 30
70 7 21 21 58 31 82 17 39 21 42 57 42 l39 0 67 -172z m546 126 l0 -47 -100 8
-100 7 0 -61 0 -61 90 0 90 0 0 -40 0 -40 -90 0 -90 0 0 -60 0 -60 105 0 105
0 0 -45 0 -45 -155 0 -155 0 0 245 0 245 150 0 150 0 0 -46z m421 25 c27 -12
49 -24 49 -27 0 -2 -10 -20 -21 -39 -15 -25 -26 -32 -38 -27 -70 30 -94 34
-127 24 -24 -8 -36 -20 -41 -37 -8 -35 17 -55 105 -83 37 -12 77 -32 90 -45
47 -44 46 -139 -1 -183 -26 -25 -98 -52 -136 -52 -40 0 -126 27 -152 49 l-22
18 23 34 c13 19 24 35 26 37 1 2 19 -8 39 -23 69 -46 170 -26 163 33 -3 24
-12 30 -88 55 -93 30 -124 53 -141 105 -22 66 23 144 96 170 50 17 123 14 176
-9z m522 -16 c4 -22 2 -40 -4 -44 -6 -3 -55 -4 -110 -2 l-99 3 0 -60 0 -60 95
0 95 0 0 -40 0 -40 -95 0 -95 0 0 -60 0 -60 111 0 110 0 -3 -42 -3 -43 -157
-3 -158 -3 0 246 0 245 154 0 153 0 6 -37z m427 -8 l0 -45 -55 0 -55 0 0 -200
0 -200 -50 0 -50 0 0 200 0 200 -65 0 -65 0 0 45 0 45 170 0 170 0 0 -45z
m257 -197 l-2 -243 -47 -3 -48 -3 0 245 0 246 50 0 49 0 -2 -242z m434 230
c37 -12 89 -45 89 -56 0 -4 -12 -20 -25 -35 l-25 -28 -38 23 c-34 19 -45 21
-87 12 -59 -11 -82 -39 -94 -111 -11 -73 -4 -107 34 -150 29 -34 38 -38 78
-38 31 0 55 7 75 22 l30 22 28 -36 27 -36 -24 -18 c-37 -29 -122 -51 -166 -43
-51 9 -82 26 -119 66 -46 48 -66 94 -72 165 -4 54 -1 70 23 118 52 108 162
159 266 123z m465 -90 c33 -57 60 -109 62 -115 5 -17 19 -16 25 1 3 8 18 34
34 57 15 24 42 68 59 98 28 53 33 56 72 59 l42 3 0 -245 0 -246 -45 0 -45 0 0
93 c0 50 -3 109 -6 129 l-7 38 -28 -38 c-15 -20 -41 -52 -56 -70 l-28 -33 -55
78 -55 78 -3 -137 -3 -138 -44 0 -45 0 0 245 0 245 34 0 c33 0 36 -4 92 -102z
m747 65 c2 -21 2 -42 0 -46 -3 -5 -50 -5 -104 -1 l-99 7 0 -62 0 -61 90 0 90
0 0 -40 0 -40 -90 0 -90 0 0 -60 0 -60 105 0 105 0 0 -45 0 -46 -152 3 -153 3
-3 243 -2 242 149 0 149 0 5 -37z m332 27 c75 -12 129 -50 168 -118 54 -97 32
-237 -47 -297 -53 -40 -100 -55 -205 -61 l-101 -7 0 246 0 247 63 0 c34 0 89
-5 122 -10z m473 -232 l-3 -243 -47 -3 -48 -3 0 245 0 246 50 0 50 0 -2 -242z
m290 0 l-3 -243 -47 -3 -48 -3 0 245 0 246 50 0 50 0 -2 -242z m445 228 c21
-8 47 -22 57 -31 19 -17 18 -18 -3 -49 -12 -17 -22 -32 -23 -33 0 -2 -18 6
-39 17 -47 24 -74 25 -121 5 -83 -34 -92 -200 -14 -270 30 -27 101 -26 140 3
l29 22 26 -31 c14 -18 24 -36 22 -43 -5 -16 -87 -56 -128 -62 -82 -14 -170 38
-214 127 -36 70 -41 120 -20 190 41 135 162 200 288 155z m339 -44 c82 -111
163 -210 176 -216 9 -4 12 26 12 134 l0 140 45 0 45 0 0 -245 0 -245 -32 0
c-27 0 -38 8 -63 43 -41 59 -196 257 -201 257 -2 0 -1 -52 2 -116 3 -65 3
-132 -1 -150 -6 -33 -8 -34 -50 -34 l-45 0 0 245 0 245 35 0 c31 0 40 -7 77
-58z m753 13 l0 -40 -102 4 -103 3 0 -61 0 -61 90 0 90 0 0 -40 0 -40 -90 0
-90 0 0 -60 0 -60 105 0 105 0 0 -45 0 -45 -155 0 -155 0 0 245 0 246 153 -3
152 -3 0 -40z"/>
<path d="M2220 2702 c0 -21 -9 -42 -25 -58 -23 -23 -45 -56 -45 -68 0 -2 32
-6 70 -8 47 -2 70 1 70 8 0 6 -16 45 -35 85 -31 67 -34 71 -35 41z"/>
<path d="M6397 2783 c-4 -8 -4 -68 1 -220 l2 -83 38 0 c92 0 145 64 140 167
-4 70 -27 105 -85 129 -35 15 -89 19 -96 7z"/>
</g>
</svg>
